<svg width="750" height="250" viewBox="0 0 750 250" fill="none" xmlns="http://www.w3.org/2000/svg">
<path d="M328.938 66.7812C339.042 66.7812 348 69.0208 355.812 73.5C363.625 77.9792 369.406 84.0208 373.156 91.625C369.406 94.2292 363.729 98.0833 356.125 103.188C353.521 97.3542 349.667 93.0833 344.562 90.375C339.458 87.6667 334.042 86.3125 328.312 86.3125C318 86.3125 309.927 90.1146 304.094 97.7188C298.26 105.323 295.344 114.073 295.344 123.969C295.344 134.385 298.521 143.396 304.875 151C311.125 158.604 319.042 162.406 328.625 162.406C334.354 162.406 339.875 161 345.188 158.188C350.396 155.271 354.198 150.948 356.594 145.219C360.656 147.51 366.698 150.948 374.719 155.531C371.281 163.656 365.083 170.115 356.125 174.906C347.167 179.594 337.792 181.938 328 181.938C317.688 181.938 308.208 179.073 299.562 173.344C291.021 167.615 284.458 160.323 279.875 151.469C275.292 142.51 273 133.135 273 123.344C273 113.865 275.135 104.906 279.406 96.4688C283.781 87.9271 290.292 80.8438 298.938 75.2188C307.688 69.5938 317.688 66.7812 328.938 66.7812ZM426.281 182.562C413.156 182.562 402.531 178.396 394.406 170.062C386.281 161.625 382.219 151.469 382.219 139.594C382.219 127.302 386.229 116.938 394.25 108.5C402.375 99.9583 413.104 95.6875 426.438 95.6875C439.667 95.6875 450.292 99.9062 458.312 108.344C466.229 116.781 470.188 126.938 470.188 138.812C470.188 141.729 470.031 144.125 469.719 146C455.344 146 433.729 146 404.875 146C405.396 152.354 407.792 157.458 412.062 161.312C416.333 165.062 421.333 166.938 427.062 166.938C431.438 166.938 435.552 165.896 439.406 163.812C443.156 161.729 445.656 158.969 446.906 155.531C451.073 156.677 457.219 158.396 465.344 160.688C462.219 167.25 457.219 172.562 450.344 176.625C443.365 180.583 435.344 182.562 426.281 182.562ZM404.406 132.406C411.698 132.406 426.333 132.406 448.312 132.406C447.583 126.052 445.188 120.948 441.125 117.094C437.062 113.24 432.062 111.312 426.125 111.312C420.396 111.312 415.5 113.24 411.438 117.094C407.271 120.948 404.927 126.052 404.406 132.406ZM533.156 115.688C526.49 115.792 520.656 117.094 515.656 119.594C510.552 122.094 506.906 125.635 504.719 130.219C504.719 141.573 504.719 158.5 504.719 181C501.073 181 493.885 181 483.156 181C483.156 167.042 483.156 139.073 483.156 97.0938C486.49 97.0938 493.052 97.0938 502.844 97.0938C502.844 100.115 502.844 106.104 502.844 115.062C505.865 109.438 509.667 104.906 514.25 101.469C518.833 98.0312 523.677 96.2083 528.781 96C531.073 96 532.531 96.0521 533.156 96.1562C533.156 100.531 533.156 107.042 533.156 115.688ZM583.938 182.562C570.812 182.562 560.188 178.396 552.062 170.062C543.938 161.625 539.875 151.469 539.875 139.594C539.875 127.302 543.885 116.938 551.906 108.5C560.031 99.9583 570.76 95.6875 584.094 95.6875C597.323 95.6875 607.948 99.9062 615.969 108.344C623.885 116.781 627.844 126.938 627.844 138.812C627.844 141.729 627.688 144.125 627.375 146C613 146 591.385 146 562.531 146C563.052 152.354 565.448 157.458 569.719 161.312C573.99 165.062 578.99 166.938 584.719 166.938C589.094 166.938 593.208 165.896 597.062 163.812C600.812 161.729 603.312 158.969 604.562 155.531C608.729 156.677 614.875 158.396 623 160.688C619.875 167.25 614.875 172.562 608 176.625C601.021 180.583 593 182.562 583.938 182.562ZM562.062 132.406C569.354 132.406 583.99 132.406 605.969 132.406C605.24 126.052 602.844 120.948 598.781 117.094C594.719 113.24 589.719 111.312 583.781 111.312C578.052 111.312 573.156 113.24 569.094 117.094C564.927 120.948 562.583 126.052 562.062 132.406ZM671.75 182.562C656.438 182.562 644.042 177.927 634.562 168.656C636.229 165.531 638.781 160.896 642.219 154.75C652.115 162.667 661.698 166.625 670.969 166.625C675.24 166.625 678.573 165.844 680.969 164.281C683.469 162.719 684.719 160.479 684.719 157.562C684.719 155.167 683.677 153.344 681.594 152.094C679.406 150.844 675.76 149.49 670.656 148.031C669.198 147.615 668 147.302 667.062 147.094C656.854 143.76 649.667 140.479 645.5 137.25C641.229 134.021 639.094 129.125 639.094 122.562C639.094 114.333 642.219 107.771 648.469 102.875C654.615 97.9792 662.792 95.5312 673 95.5312C685.708 95.5312 696.229 99.4896 704.562 107.406C702.688 110.427 699.823 114.958 695.969 121C687.635 114.646 679.667 111.469 672.062 111.469C663.417 111.469 659.094 114.333 659.094 120.062C659.094 122.771 660.188 124.802 662.375 126.156C664.562 127.51 668.521 128.969 674.25 130.531C685.708 133.969 693.781 137.302 698.469 140.531C703.052 143.865 705.344 149.021 705.344 156C705.344 164.229 702.323 170.74 696.281 175.531C690.135 180.219 681.958 182.562 671.75 182.562Z" fill="black"/>
<rect x="38" y="25" width="200" height="200" rx="90" fill="#088E6E"/>
<path d="M162.466 113.787L147.128 87.235C146.205 85.6294 144.876 84.2956 143.273 83.368C141.671 82.4405 139.852 81.9521 138.001 81.9521C136.149 81.9521 134.33 82.4405 132.728 83.368C131.125 84.2956 129.796 85.6294 128.873 87.235L113.535 113.787C111.237 117.769 109.946 122.253 109.774 126.848C109.603 131.442 110.557 136.01 112.552 140.152C114.547 144.295 117.524 147.887 121.224 150.618C124.924 153.348 129.234 155.134 133.781 155.819V168.052C133.781 169.171 134.225 170.244 135.017 171.036C135.808 171.827 136.881 172.272 138.001 172.272C139.12 172.272 140.193 171.827 140.984 171.036C141.776 170.244 142.22 169.171 142.22 168.052V155.819C146.767 155.134 151.078 153.348 154.777 150.618C158.477 147.887 161.454 144.295 163.449 140.152C165.444 136.01 166.398 131.442 166.227 126.848C166.055 122.253 164.764 117.769 162.466 113.787V113.787ZM155.164 137.802C153.798 140.206 151.938 142.294 149.707 143.928C147.476 145.562 144.925 146.706 142.22 147.285V124.052C142.22 122.933 141.776 121.859 140.984 121.068C140.193 120.277 139.12 119.832 138.001 119.832C136.881 119.832 135.808 120.277 135.017 121.068C134.225 121.859 133.781 122.933 133.781 124.052V147.237C130.734 146.58 127.886 145.212 125.468 143.244C123.051 141.277 121.133 138.765 119.871 135.915C118.609 133.065 118.038 129.958 118.206 126.845C118.374 123.733 119.276 120.704 120.837 118.007L136.175 91.4311C136.361 91.1112 136.627 90.8456 136.947 90.661C137.268 90.4764 137.631 90.3793 138.001 90.3793C138.37 90.3793 138.734 90.4764 139.054 90.661C139.374 90.8456 139.641 91.1112 139.826 91.4311L155.164 118.007C156.923 121.009 157.85 124.425 157.85 127.904C157.85 131.383 156.923 134.8 155.164 137.802V137.802Z" fill="white"/>
</svg>
